<svg viewBox="80 90 350 320" xmlns="http://www.w3.org/2000/svg" fill-rule="evenodd" clip-rule="evenodd" stroke-linejoin="round" stroke-miterlimit="2"><path d="M422.656 232.437c0-74.593-74.781-135.28-166.703-135.28S89.25 157.843 89.25 232.436c0 66.875 59.375 122.891 139.406 133.47 5.438 1.171 12.828 3.577 14.688 8.218 1.687 4.219 1.11 10.828.547 15.078 0 0-1.953 11.766-2.375 14.266-.735 4.218-3.36 16.484 14.437 9 17.797-7.485 96-56.531 130.969-96.797 24.156-26.485 35.734-53.422 35.734-83.235z" fill="#fff" fill-rule="nonzero"/><path d="M367.188 275.516h-46.875a3.14 3.14 0 01-3.125-3.125v-72.735a3.14 3.14 0 013.125-3.125h46.875a3.14 3.14 0 013.125 3.125v11.828a3.14 3.14 0 01-3.125 3.125h-31.829v12.266h31.829a3.14 3.14 0 013.125 3.125v11.938a3.14 3.14 0 01-3.125 3.125h-31.829v12.28h31.829a3.14 3.14 0 013.125 3.126v11.812l.001.11a3.14 3.14 0 01-3.125 3.125h-.001zM193.953 275.516a3.14 3.14 0 003.125-3.125v-11.813a3.14 3.14 0 00-3.125-3.125h-31.828v-57.812a3.14 3.14 0 00-3.125-3.125h-11.875A3.14 3.14 0 00144 199.64v72.703a3.14 3.14 0 003.125 3.125H194l-.047.047z" fill="#06c755" fill-rule="nonzero"/><path d="M225.328 199.11v73.685a2.721 2.721 0 01-2.72 2.72H209.86a2.721 2.721 0 01-2.72-2.72v-73.684a2.721 2.721 0 012.72-2.72h12.747a2.721 2.721 0 012.72 2.72z" fill="#06c755"/><path d="M302.625 196.39h-11.813a3.14 3.14 0 00-3.125 3.126v43.218l-33.28-44.953a1.922 1.922 0 00-.266-.328l-.188-.187-.172-.141h-.093l-.172-.125h-.094l-.172-.094h-13.234a3.14 3.14 0 00-3.125 3.125v72.75a3.14 3.14 0 003.125 3.125h11.828a3.14 3.14 0 003.125-3.125v-43.64l33.328 45c.219.318.494.593.812.812l.188.125h.094l.156.078h.484c.277.069.56.105.844.11h11.75a3.14 3.14 0 003.125-3.125v-72.563-.062a3.14 3.14 0 00-3.125-3.125z" fill="#06c755" fill-rule="nonzero"/></svg>
